<?xml version="1.0" encoding="UTF-8" standalone="no"?>
<!DOCTYPE svg PUBLIC "-//W3C//DTD SVG 1.1//EN" "http://www.w3.org/Graphics/SVG/1.1/DTD/svg11.dtd">
<svg width="100%" height="100%" viewBox="0 0 550 550" version="1.1" xmlns="http://www.w3.org/2000/svg" xmlns:xlink="http://www.w3.org/1999/xlink" xml:space="preserve" xmlns:serif="http://www.serif.com/" style="fill-rule:evenodd;clip-rule:evenodd;stroke-linejoin:round;stroke-miterlimit:2;">
    <g transform="matrix(0.114082,2.46519e-33,2.46519e-33,-0.114082,-38.6634,588.797)">
        <path d="M1365,5154C884,5068 497,4712 375,4244C331,4075 328,3976 333,2665C336,1461 337,1433 357,1340C468,839 824,482 1330,364C1396,349 1480,346 2021,343C2581,339 2639,340 2654,355C2669,370 2670,563 2670,2751C2670,4373 2667,5137 2660,5151C2650,5169 2633,5170 2047,5169C1571,5168 1428,5165 1365,5154ZM2270,4780L2270,728L1863,733C1488,737 1448,739 1373,758C1051,841 812,1089 745,1412C723,1513 723,4001 744,4100C804,4381 999,4614 1262,4719C1394,4772 1455,4778 1883,4779L2270,4780Z" style="fill-rule:nonzero;"/>
        <path d="M1451,4169C1388,4157 1292,4109 1241,4064C1136,3973 1084,3844 1092,3692C1096,3613 1101,3592 1133,3528C1180,3431 1251,3360 1348,3312C1415,3279 1432,3275 1519,3272C1598,3269 1626,3272 1679,3290C1896,3363 2027,3574 1990,3790C1947,4047 1703,4219 1451,4169Z" style="fill-rule:nonzero;"/>
        <path d="M3157,5163C3153,5160 3150,4076 3150,2754C3150,573 3151,352 3166,346C3193,336 3969,340 4065,350C4471,396 4829,643 5024,1010C5049,1057 5082,1136 5099,1185C5162,1373 5160,1323 5160,2760C5160,3907 5158,4078 5144,4151C5045,4672 4648,5065 4126,5155C4056,5167 3948,5170 3600,5170C3360,5170 3160,5167 3157,5163ZM4225,2985C4381,2944 4509,2825 4561,2673C4594,2579 4593,2441 4560,2355C4499,2197 4379,2086 4225,2045C3975,1980 3709,2131 3636,2379C3614,2455 3615,2583 3640,2661C3715,2906 3975,3050 4225,2985Z" style="fill-rule:nonzero;"/>
    </g>
</svg>
