<?xml version="1.0" encoding="UTF-8" standalone="no"?>
<!DOCTYPE svg PUBLIC "-//W3C//DTD SVG 1.1//EN" "http://www.w3.org/Graphics/SVG/1.1/DTD/svg11.dtd">
<svg width="100%" height="100%" viewBox="0 0 1920 54" version="1.1" xmlns="http://www.w3.org/2000/svg" xmlns:xlink="http://www.w3.org/1999/xlink" xml:space="preserve" xmlns:serif="http://www.serif.com/" style="fill-rule:evenodd;clip-rule:evenodd;stroke-linejoin:round;stroke-miterlimit:2;">
    <g transform="matrix(0.96,0,0,0.96,0,4.44985)">
        <path d="M2000,56.475L0,56.475L0,6.475L9.502,9.896C19.517,13.501 30.483,13.501 40.498,9.896L50,6.476L58.007,3.272C68.912,-1.09 81.088,-1.09 91.993,3.272L100,6.475L109.502,9.896C119.517,13.501 130.483,13.501 140.498,9.896L150,6.476L158.007,3.272C168.912,-1.09 181.088,-1.09 191.993,3.272L200,6.475L209.502,9.896C219.517,13.501 230.483,13.501 240.498,9.896L250,6.476L258.007,3.272C268.912,-1.09 281.088,-1.09 291.993,3.272L300,6.475L309.502,9.896C319.517,13.501 330.483,13.501 340.498,9.896L350,6.476L358.007,3.272C368.912,-1.09 381.088,-1.09 391.993,3.272L400,6.475L409.502,9.896C419.517,13.501 430.483,13.501 440.498,9.896L450,6.476L458.007,3.272C468.912,-1.09 481.088,-1.09 491.993,3.272L500,6.475L509.502,9.896C519.517,13.501 530.483,13.501 540.498,9.896L550,6.476L558.007,3.272C568.912,-1.09 581.088,-1.09 591.993,3.272L600,6.475L609.502,9.896C619.517,13.501 630.483,13.501 640.498,9.896L650,6.476L658.007,3.272C668.912,-1.09 681.088,-1.09 691.993,3.272L700,6.475L709.502,9.896C719.517,13.501 730.483,13.501 740.498,9.896L750,6.476L758.007,3.272C768.912,-1.09 781.088,-1.09 791.993,3.272L800,6.475L809.502,9.896C819.517,13.501 830.483,13.501 840.498,9.896L850,6.476L858.007,3.272C868.912,-1.09 881.088,-1.09 891.993,3.272L900,6.475L909.502,9.896C919.517,13.501 930.483,13.501 940.498,9.896L950,6.476L958.007,3.272C968.912,-1.09 981.088,-1.09 991.993,3.272L1000,6.475C1000,6.475 1004.4,8.058 1009.5,9.896C1019.52,13.501 1030.48,13.501 1040.5,9.896C1045.6,8.058 1050,6.476 1050,6.476L1058.01,3.272C1068.91,-1.09 1081.09,-1.09 1091.99,3.272L1100,6.475C1100,6.475 1104.4,8.058 1109.5,9.896C1119.52,13.501 1130.48,13.501 1140.5,9.896C1145.6,8.058 1150,6.476 1150,6.476L1158.01,3.272C1168.91,-1.09 1181.09,-1.09 1191.99,3.272L1200,6.475L1209.5,9.896C1219.52,13.501 1230.48,13.501 1240.5,9.896C1245.6,8.058 1250,6.476 1250,6.476L1258.01,3.272C1268.91,-1.09 1281.09,-1.09 1291.99,3.272L1300,6.475C1300,6.475 1304.4,8.058 1309.5,9.896C1319.52,13.501 1330.48,13.501 1340.5,9.896C1345.6,8.058 1350,6.476 1350,6.476L1358.01,3.272C1368.91,-1.09 1381.09,-1.09 1391.99,3.272L1400,6.475C1400,6.475 1404.4,8.058 1409.5,9.896C1419.52,13.501 1430.48,13.501 1440.5,9.896C1445.6,8.058 1450,6.476 1450,6.476L1458.01,3.272C1468.91,-1.09 1481.09,-1.09 1491.99,3.272L1500,6.475C1500,6.475 1504.4,8.058 1509.5,9.896C1519.52,13.501 1530.48,13.501 1540.5,9.896C1545.6,8.058 1550,6.476 1550,6.476L1558.01,3.272C1568.91,-1.09 1581.09,-1.09 1591.99,3.272L1600,6.475C1600,6.475 1604.4,8.058 1609.5,9.896C1619.52,13.501 1630.48,13.501 1640.5,9.896C1645.6,8.058 1650,6.476 1650,6.476L1658.01,3.272C1668.91,-1.09 1681.09,-1.09 1691.99,3.272L1700,6.475C1700,6.475 1704.4,8.058 1709.5,9.896C1719.52,13.501 1730.48,13.501 1740.5,9.896C1745.6,8.058 1750,6.476 1750,6.476L1758.01,3.272C1768.91,-1.09 1781.09,-1.09 1791.99,3.272L1800,6.475C1800,6.475 1804.4,8.058 1809.5,9.896C1819.52,13.501 1830.48,13.501 1840.5,9.896C1845.6,8.058 1850,6.476 1850,6.476L1858.01,3.272C1868.91,-1.09 1881.09,-1.09 1891.99,3.272L1900,6.475C1900,6.475 1904.4,8.058 1909.5,9.896C1919.52,13.501 1930.48,13.501 1940.5,9.896C1945.6,8.058 1950,6.476 1950,6.476L1958.01,3.272C1968.91,-1.09 1981.09,-1.09 1991.99,3.272L2000,6.475L2000,56.475Z" style="fill:rgb(251,185,84);"/>
        <path d="M2000,60.642C2002.3,60.642 2004.17,58.776 2004.17,56.475L2004.17,6.475C2004.17,4.771 2003.13,3.239 2001.55,2.606L1993.54,-0.597C1981.64,-5.355 1968.36,-5.355 1956.46,-0.597C1956.46,-0.597 1948.52,2.58 1948.52,2.58C1947.94,2.788 1943.82,4.272 1939.09,5.976C1929.98,9.252 1920.02,9.252 1910.91,5.976C1906.18,4.272 1902.06,2.787 1901.48,2.579C1901.48,2.579 1893.54,-0.597 1893.54,-0.597C1881.64,-5.355 1868.36,-5.355 1856.46,-0.597C1856.46,-0.597 1848.52,2.58 1848.52,2.58C1847.94,2.788 1843.82,4.272 1839.09,5.976C1829.98,9.252 1820.02,9.252 1810.91,5.976C1806.18,4.272 1802.06,2.787 1801.48,2.579C1801.48,2.579 1793.54,-0.597 1793.54,-0.597C1781.64,-5.355 1768.36,-5.355 1756.46,-0.597C1756.46,-0.597 1748.52,2.58 1748.52,2.58C1747.94,2.788 1743.82,4.272 1739.09,5.976C1729.98,9.252 1720.02,9.252 1710.91,5.976C1706.18,4.272 1702.06,2.787 1701.48,2.579C1701.48,2.579 1693.54,-0.597 1693.54,-0.597C1681.64,-5.355 1668.36,-5.355 1656.46,-0.597C1656.46,-0.597 1648.52,2.58 1648.52,2.58C1647.94,2.788 1643.82,4.272 1639.09,5.976C1629.98,9.252 1620.02,9.252 1610.91,5.976C1606.18,4.272 1602.06,2.787 1601.48,2.579C1601.48,2.579 1593.54,-0.597 1593.54,-0.597C1581.64,-5.355 1568.36,-5.355 1556.46,-0.597C1556.46,-0.597 1548.52,2.58 1548.52,2.58C1547.94,2.788 1543.82,4.272 1539.09,5.976C1529.98,9.252 1520.02,9.252 1510.91,5.976C1506.18,4.272 1502.06,2.787 1501.48,2.579C1501.48,2.579 1493.54,-0.597 1493.54,-0.597C1481.64,-5.355 1468.36,-5.355 1456.46,-0.597C1456.46,-0.597 1448.52,2.58 1448.52,2.58C1447.94,2.788 1443.82,4.272 1439.09,5.976C1429.98,9.252 1420.02,9.252 1410.91,5.976C1406.18,4.272 1402.06,2.787 1401.48,2.579C1401.48,2.579 1393.54,-0.597 1393.54,-0.597C1381.64,-5.355 1368.36,-5.355 1356.46,-0.597C1356.46,-0.597 1348.52,2.58 1348.52,2.58C1347.94,2.788 1343.82,4.272 1339.09,5.976C1329.98,9.252 1320.02,9.252 1310.91,5.976C1306.18,4.272 1302.06,2.787 1301.48,2.579C1301.48,2.579 1293.54,-0.597 1293.54,-0.597C1281.64,-5.355 1268.36,-5.355 1256.46,-0.597C1256.46,-0.597 1248.52,2.58 1248.52,2.58C1247.94,2.788 1243.82,4.272 1239.09,5.976C1229.98,9.253 1220.02,9.252 1210.91,5.976C1210.91,5.976 1201.48,2.579 1201.48,2.579C1201.48,2.579 1193.54,-0.597 1193.54,-0.597C1181.64,-5.355 1168.36,-5.355 1156.46,-0.597C1156.46,-0.597 1148.52,2.58 1148.52,2.58C1147.94,2.788 1143.82,4.272 1139.09,5.976C1129.98,9.252 1120.02,9.252 1110.91,5.976C1106.18,4.272 1102.06,2.787 1101.48,2.579C1101.48,2.579 1093.54,-0.597 1093.54,-0.597C1081.64,-5.355 1068.36,-5.355 1056.46,-0.597C1056.46,-0.597 1048.52,2.58 1048.52,2.58C1047.94,2.788 1043.82,4.272 1039.09,5.976C1029.98,9.252 1020.02,9.252 1010.91,5.976C1006.18,4.272 1002.06,2.787 1001.48,2.579L993.54,-0.597C981.642,-5.355 968.358,-5.355 956.46,-0.597L948.52,2.58L939.087,5.976C929.984,9.252 920.016,9.252 910.913,5.976C910.913,5.976 901.48,2.579 901.48,2.579L893.54,-0.597C881.642,-5.355 868.358,-5.355 856.46,-0.597L848.52,2.58L839.087,5.976C829.984,9.252 820.016,9.252 810.913,5.976C810.913,5.976 801.48,2.579 801.48,2.579L793.54,-0.597C781.642,-5.355 768.358,-5.355 756.46,-0.597L748.52,2.58L739.087,5.976C729.984,9.252 720.016,9.252 710.913,5.976C710.913,5.976 701.48,2.579 701.48,2.579L693.54,-0.597C681.642,-5.355 668.358,-5.355 656.46,-0.597L648.52,2.58L639.087,5.976C629.984,9.252 620.016,9.252 610.913,5.976C610.913,5.976 601.48,2.579 601.48,2.579L593.54,-0.597C581.642,-5.355 568.358,-5.355 556.46,-0.597L548.52,2.58L539.087,5.976C529.984,9.252 520.016,9.252 510.913,5.976C510.913,5.976 501.48,2.579 501.48,2.579L493.54,-0.597C481.642,-5.355 468.358,-5.355 456.46,-0.597L448.52,2.58L439.087,5.976C429.984,9.252 420.016,9.252 410.913,5.976C410.913,5.976 401.48,2.579 401.48,2.579L393.54,-0.597C381.642,-5.355 368.358,-5.355 356.46,-0.597L348.52,2.58L339.087,5.976C329.984,9.252 320.016,9.252 310.913,5.976C310.913,5.976 301.48,2.579 301.48,2.579L293.54,-0.597C281.642,-5.355 268.358,-5.355 256.46,-0.597L248.52,2.58L239.087,5.976C229.984,9.252 220.016,9.252 210.913,5.976C210.913,5.976 201.48,2.579 201.48,2.579L193.54,-0.597C181.642,-5.355 168.358,-5.355 156.46,-0.597L148.52,2.58L139.087,5.976C129.984,9.252 120.016,9.252 110.913,5.976C110.913,5.976 101.48,2.579 101.48,2.579L93.54,-0.597C81.642,-5.355 68.358,-5.355 56.46,-0.597L48.52,2.58L39.087,5.976C29.984,9.252 20.016,9.252 10.913,5.976C10.913,5.976 1.411,2.555 1.411,2.555C0.135,2.095 -1.286,2.286 -2.396,3.066C-3.506,3.846 -4.167,5.118 -4.167,6.475L-4.167,56.475C-4.167,58.776 -2.301,60.642 0,60.642L2000,60.642ZM2000,56.475L0,56.475L0,6.475L9.502,9.896C19.517,13.501 30.483,13.501 40.498,9.896L50,6.476L58.007,3.272C68.912,-1.09 81.088,-1.09 91.993,3.272L100,6.475L109.502,9.896C119.517,13.501 130.483,13.501 140.498,9.896L150,6.476L158.007,3.272C168.912,-1.09 181.088,-1.09 191.993,3.272L200,6.475L209.502,9.896C219.517,13.501 230.483,13.501 240.498,9.896L250,6.476L258.007,3.272C268.912,-1.09 281.088,-1.09 291.993,3.272L300,6.475L309.502,9.896C319.517,13.501 330.483,13.501 340.498,9.896L350,6.476L358.007,3.272C368.912,-1.09 381.088,-1.09 391.993,3.272L400,6.475L409.502,9.896C419.517,13.501 430.483,13.501 440.498,9.896L450,6.476L458.007,3.272C468.912,-1.09 481.088,-1.09 491.993,3.272L500,6.475L509.502,9.896C519.517,13.501 530.483,13.501 540.498,9.896L550,6.476L558.007,3.272C568.912,-1.09 581.088,-1.09 591.993,3.272L600,6.475L609.502,9.896C619.517,13.501 630.483,13.501 640.498,9.896L650,6.476L658.007,3.272C668.912,-1.09 681.088,-1.09 691.993,3.272L700,6.475L709.502,9.896C719.517,13.501 730.483,13.501 740.498,9.896L750,6.476L758.007,3.272C768.912,-1.09 781.088,-1.09 791.993,3.272L800,6.475L809.502,9.896C819.517,13.501 830.483,13.501 840.498,9.896L850,6.476L858.007,3.272C868.912,-1.09 881.088,-1.09 891.993,3.272L900,6.475L909.502,9.896C919.517,13.501 930.483,13.501 940.498,9.896L950,6.476L958.007,3.272C968.912,-1.09 981.088,-1.09 991.993,3.272L1000,6.475C1000,6.475 1004.4,8.058 1009.5,9.896C1019.52,13.501 1030.48,13.501 1040.5,9.896C1045.6,8.058 1050,6.476 1050,6.476L1058.01,3.272C1068.91,-1.09 1081.09,-1.09 1091.99,3.272L1100,6.475C1100,6.475 1104.4,8.058 1109.5,9.896C1119.52,13.501 1130.48,13.501 1140.5,9.896C1145.6,8.058 1150,6.476 1150,6.476L1158.01,3.272C1168.91,-1.09 1181.09,-1.09 1191.99,3.272L1200,6.475L1209.5,9.896C1219.52,13.501 1230.48,13.501 1240.5,9.896C1245.6,8.058 1250,6.476 1250,6.476L1258.01,3.272C1268.91,-1.09 1281.09,-1.09 1291.99,3.272L1300,6.475C1300,6.475 1304.4,8.058 1309.5,9.896C1319.52,13.501 1330.48,13.501 1340.5,9.896C1345.6,8.058 1350,6.476 1350,6.476L1358.01,3.272C1368.91,-1.09 1381.09,-1.09 1391.99,3.272L1400,6.475C1400,6.475 1404.4,8.058 1409.5,9.896C1419.52,13.501 1430.48,13.501 1440.5,9.896C1445.6,8.058 1450,6.476 1450,6.476L1458.01,3.272C1468.91,-1.09 1481.09,-1.09 1491.99,3.272L1500,6.475C1500,6.475 1504.4,8.058 1509.5,9.896C1519.52,13.501 1530.48,13.501 1540.5,9.896C1545.6,8.058 1550,6.476 1550,6.476L1558.01,3.272C1568.91,-1.09 1581.09,-1.09 1591.99,3.272L1600,6.475C1600,6.475 1604.4,8.058 1609.5,9.896C1619.52,13.501 1630.48,13.501 1640.5,9.896C1645.6,8.058 1650,6.476 1650,6.476L1658.01,3.272C1668.91,-1.09 1681.09,-1.09 1691.99,3.272L1700,6.475C1700,6.475 1704.4,8.058 1709.5,9.896C1719.52,13.501 1730.48,13.501 1740.5,9.896C1745.6,8.058 1750,6.476 1750,6.476L1758.01,3.272C1768.91,-1.09 1781.09,-1.09 1791.99,3.272L1800,6.475C1800,6.475 1804.4,8.058 1809.5,9.896C1819.52,13.501 1830.48,13.501 1840.5,9.896C1845.6,8.058 1850,6.476 1850,6.476L1858.01,3.272C1868.91,-1.09 1881.09,-1.09 1891.99,3.272L1900,6.475C1900,6.475 1904.4,8.058 1909.5,9.896C1919.52,13.501 1930.48,13.501 1940.5,9.896C1945.6,8.058 1950,6.476 1950,6.476L1958.01,3.272C1968.91,-1.09 1981.09,-1.09 1991.99,3.272L2000,6.475L2000,56.475Z"/>
    </g>
</svg>
